<svg width="209" height="209" viewBox="0 0 209 209" fill="none" xmlns="http://www.w3.org/2000/svg">
<rect x="92" y="34" width="25" height="141" rx="12.5" fill="black"/>
<rect x="34" y="117" width="25" height="141" rx="12.5" transform="rotate(-90 34 117)" fill="black"/>
<path d="M209 104.5C209 162.214 162.214 209 104.5 209C46.7862 209 0 162.214 0 104.5C0 46.7862 46.7862 0 104.5 0C162.214 0 209 46.7862 209 104.5ZM16.7967 104.5C16.7967 152.937 56.0628 192.203 104.5 192.203C152.937 192.203 192.203 152.937 192.203 104.5C192.203 56.0628 152.937 16.7967 104.5 16.7967C56.0628 16.7967 16.7967 56.0628 16.7967 104.5Z" fill="black"/>
</svg>
