<svg
    width="180"
    height="202"
    viewBox="0 0 180 202"
    fill="none"
    xmlns="http://www.w3.org/2000/svg"
    >
    <path
      d="M79.9022 0.685728L49.3894 35.6857C48.2613 36.9797 49.1803 39 50.8969 39H65.1516C65.6938 39 66.2128 38.7799 66.5896 38.39L77.062 27.5565C78.3118 26.2636 80.5 27.1484 80.5 28.9466V123C80.5 124.105 79.6046 125 78.5 125H59C57.8954 125 57 125.895 57 127V134.5C57 135.605 57.8954 136.5 59 136.5H125C126.105 136.5 127 135.605 127 134.5V127C127 125.895 126.105 125 125 125H105.5C104.395 125 103.5 124.105 103.5 123V2C103.5 0.895431 102.605 0 101.5 0H81.4097C80.8317 0 80.282 0.250052 79.9022 0.685728Z"
      fill="#2745E0"
    />
    <path
      d="M69.6633 83.4736C68.1745 79.9058 64.0519 78.188 60.6647 80.0516C49.6303 86.123 40.5494 95.2988 34.5946 106.51C27.5407 119.791 25.31 135.107 28.2826 149.849C31.2552 164.59 39.2472 177.845 50.8969 187.354C62.5466 196.864 77.1331 202.039 92.1712 202C107.209 201.96 121.768 196.708 133.368 187.137C144.967 177.566 152.889 164.27 155.784 149.513C158.679 134.756 156.368 119.452 149.244 106.208C143.23 95.0283 134.101 85.9006 123.035 79.8874C119.638 78.0416 115.524 79.7811 114.054 83.3567L113.168 85.5124C111.698 89.088 113.44 93.1366 116.767 95.104C124.365 99.5956 130.639 106.094 134.862 113.945C140.196 123.861 141.926 135.32 139.759 146.369C137.591 157.418 131.66 167.374 122.974 174.54C114.289 181.706 103.388 185.639 92.1282 185.669C80.8683 185.699 69.9466 181.823 61.2238 174.703C52.501 167.583 46.5169 157.658 44.2911 146.621C42.0654 135.583 43.7356 124.115 49.0173 114.171C53.1985 106.298 59.4382 99.7666 67.0122 95.2351C70.3297 93.2502 72.0498 89.1924 70.5609 85.6246L69.6633 83.4736Z"
      fill="#2745E0"
    />
    <path
      d="M0 1C0 0.447715 0.447715 0 1 0H72.6988C73.5732 0 74.0264 1.0431 73.4298 1.68232L61.2965 14.6823C61.1074 14.885 60.8426 15 60.5654 15H0.999999C0.447714 15 0 14.5523 0 14V1Z"
      fill="#2745E0"
    />
    <rect x="109" width="71" height="15" rx="1" fill="#2745E0" />
</svg>