<svg width="178" height="172" viewBox="0 0 178 172" fill="none" xmlns="http://www.w3.org/2000/svg">
<path d="M40.7917 74.875H3.70833C2.72482 74.875 1.78159 75.2657 1.08615 75.9612C0.390698 76.6566 0 77.5999 0 78.5834L0 167.583C0 168.567 0.390698 169.51 1.08615 170.206C1.78159 170.901 2.72482 171.292 3.70833 171.292H40.7917C41.7752 171.292 42.7184 170.901 43.4139 170.206C44.1093 169.51 44.5 168.567 44.5 167.583V78.5834C44.5 77.5999 44.1093 76.6566 43.4139 75.9612C42.7184 75.2657 41.7752 74.875 40.7917 74.875ZM178 78.5834C178 68.3632 169.678 60.0417 159.458 60.0417H112.77C115.032 53.1516 118.667 40.521 118.667 30.375C118.667 14.2883 104.998 0.708374 96.4167 0.708374C88.7107 0.708374 83.2076 5.03971 82.9703 5.22512C82.5379 5.57489 82.1891 6.01671 81.9492 6.51838C81.7092 7.02006 81.5842 7.56894 81.5833 8.12504V33.2675L60.2233 79.555L53.9711 82.6774C53.355 82.9872 52.8369 83.4618 52.4742 84.0483C52.1115 84.6348 51.9185 85.3104 51.9167 86V152.75C51.9167 153.736 52.3097 154.678 52.9995 155.376C58.5546 160.923 71.0146 163.875 77.875 163.875H146.479C149.317 163.87 152.108 163.142 154.586 161.76C157.065 160.377 159.151 158.386 160.646 155.974C162.142 153.562 162.998 150.808 163.134 147.973C163.27 145.138 162.682 142.315 161.424 139.771C165.352 137.798 168.339 134.349 169.729 130.178C171.119 126.008 170.799 121.456 168.84 117.521C171.592 116.14 173.905 114.021 175.522 111.402C177.14 108.783 177.997 105.766 178 102.688C178 98.2375 176.227 94.0768 173.179 91.0063C176.257 87.654 178 83.2633 178 78.5834Z" fill="black"/>
</svg>
